<?xml version="1.0" encoding="UTF-8"?>
<svg version="1.1" viewBox="0 0 1600 1600" width="45" height="45" xmlns="http://www.w3.org/2000/svg">
<path transform="translate(1096 3.7)" d="m0 0c2.09 0.307 4.19 0.598 6.29 0.884 53.3 7.28 105 20.5 155 42.4 1.01 0.447 2.02 0.895 3.06 1.36 12.9 5.74 25.5 11.8 37.9 18.6 0.964 0.519 1.93 1.04 2.92 1.57 2.7 1.46 5.39 2.94 8.08 4.43 1.14 0.619 2.28 1.24 3.45 1.88 22.1 12.1 43.1 26.3 62.9 41.9 1.66 1.3 3.32 2.58 4.99 3.86 12.1 9.37 23.6 19.4 34.9 29.9 2.49 2.29 5.02 4.54 7.56 6.78 8.94 8.03 17.7 16.6 25.5 25.7 1.84 2.14 3.75 4.21 5.66 6.27 4.83 5.21 9.45 10.5 13.9 16.1 1.38 1.72 2.78 3.42 4.19 5.11 11.3 13.6 21.6 27.8 31.4 42.5 0.556 0.834 0.556 0.834 1.12 1.68 13.6 20.4 25.4 41.6 36.4 63.4 0.494 0.971 0.988 1.94 1.5 2.94 19.2 38.1 32.6 78.6 42.5 120 0.239 0.967 0.478 1.93 0.725 2.93 4.85 19.7 7.57 39.9 10.3 60.1 0.11 0.805 0.22 1.61 0.333 2.44 10.5 77.6 1.07 159-22.3 234-0.198 0.632-0.395 1.26-0.599 1.92-16.4 52.2-40 103-71.4 148-0.453 0.655-0.905 1.31-1.37 1.99-20 29-42.5 56.3-67.6 81-2.62 2.61-5.23 5.23-7.83 7.87-5.55 5.61-11.2 11-17.2 16.1-1.1 0.962-2.2 1.93-3.3 2.89-29.2 25.6-60.9 47.7-94.7 66.9-2.62 1.51-5.19 3.1-7.78 4.67-8.44 4.92-17.4 8.94-26.2 13.1-2.89 1.36-5.77 2.74-8.64 4.13-54.7 26.1-115 41.7-175 48.3-0.668 0.0752-1.34 0.15-2.02 0.228-37.6 4.21-76.3 4.84-114 0.772-2.04-0.197-4.08-0.394-6.11-0.59-46.6-4.71-91.9-15.5-136-31.4-1.21-0.437-2.43-0.874-3.68-1.32-14.9-5.41-29.3-11.6-43.6-18.4-2.54-1.2-5.09-2.37-7.65-3.53-27.5-12.6-54-28.7-78.4-46.5-1.5-1.1-3.02-2.18-4.54-3.26-18.2-13-35.1-27.3-51.5-42.5-1.27-1.16-2.56-2.32-3.85-3.46-6.05-5.38-11.9-11-17.6-16.7-1.42-1.43-2.85-2.85-4.28-4.28-5.19-5.2-10.2-10.5-14.9-16.1-1.45-1.61-2.91-3.21-4.38-4.81-4.73-5.25-9.21-10.7-13.6-16.2-0.425-0.531-0.851-1.06-1.29-1.61-54.7-68.5-94-149-121-288-0.244-1.91-0.5-3.82-0.758-5.74-5.86-44.9-4.92-93.5 1.5-138 0.107-0.759 0.213-1.52 0.323-2.3 5.6-39.8 15.1-78.7 28.9-116 0.815-2.24 1.6-4.5 2.39-6.75 4.99-14.2 11.2-27.8 17.4-41.5 0.4-0.888 0.8-1.78 1.21-2.69 5.7-12.6 12.3-24.7 19.3-36.7 1.36-2.34 2.69-4.69 4.03-7.05 16.2-28.4 35.8-55.3 57.1-80 1.49-1.74 2.98-3.49 4.45-5.24 4.86-5.75 9.74-11.3 15.1-16.6 1.82-1.82 3.49-3.7 5.16-5.66 6.05-7.01 12.7-13.4 19.7-19.4 2.01-1.78 3.86-3.65 5.73-5.58 3.91-3.97 8.14-7.44 12.5-10.9 2.35-1.92 4.59-3.9 6.82-5.95 6.29-5.66 13.1-10.7 19.9-15.7 1.67-1.26 3.33-2.54 4.99-3.82 80.7-61.9 178-96.4 278-109 1.89-0.249 3.77-0.514 5.66-0.781 40.1-5.6 83.3-4.75 123 1.21zm-93.3 193c-0.503 0.63-1.01 1.26-1.53 1.91-3.1 3.7-6.36 7.17-9.77 10.6-0.788 0.788-0.788 0.788-1.59 1.59-1.69 1.69-3.38 3.37-5.08 5.06-1.19 1.19-2.38 2.38-3.57 3.57-3.11 3.11-6.23 6.22-9.35 9.33-3.17 3.16-6.34 6.33-9.52 9.5-5.57 5.56-11.1 11.1-16.7 16.7-2.16 2.16-4.32 4.32-6.48 6.48 21.8 21.8 43.6 43.6 66 66 4.23-2.11 6.97-4.7 10.2-8.01 0.615-0.615 1.23-1.23 1.86-1.86 2.03-2.03 4.05-4.07 6.07-6.1 1.41-1.41 2.81-2.82 4.22-4.23 3.7-3.71 7.39-7.42 11.1-11.1 3.77-3.79 7.55-7.58 11.3-11.4 7.41-7.43 14.8-14.9 22.2-22.3-1.65-4.24-4.8-7.09-7.96-10.2-0.61-0.615-1.22-1.23-1.85-1.86-2.01-2.03-4.04-4.05-6.06-6.07-1.4-1.41-2.81-2.81-4.21-4.22-2.94-2.95-5.88-5.89-8.82-8.83-3.78-3.77-7.55-7.56-11.3-11.3-2.89-2.91-5.79-5.81-8.69-8.7-1.39-1.39-2.78-2.79-4.17-4.19-1.94-1.95-3.88-3.89-5.83-5.83-0.575-0.583-1.15-1.17-1.74-1.77-3.95-4.34-3.95-4.34-8.74-2.64zm239 93.7c-0.33 0.99-0.66 1.98-1 3-1.32 0.689-2.66 1.35-4 2-1.53 1.54-1.53 1.54-2.88 3.31-1.94 2.37-3.67 4.14-6.06 6.12-3.09 2.59-5.53 5.32-8.14 8.38-3.45 3.91-7.21 7.53-10.9 11.2-0.908 0.908-1.82 1.82-2.75 2.75-1.47 1.47-2.95 2.95-4.43 4.42-2.13 2.14-4.26 4.28-6.38 6.42-1.29 1.3-2.59 2.6-3.88 3.91-0.964 0.976-0.964 0.976-1.95 1.97-3.72 3.74-7.51 7.22-11.6 10.5 0.335 5.21 3.31 7.88 6.83 11.4 0.608 0.617 1.22 1.23 1.84 1.87 2.01 2.03 4.04 4.05 6.06 6.07 1.4 1.41 2.8 2.81 4.2 4.22 2.94 2.95 5.88 5.89 8.83 8.82 3.79 3.77 7.55 7.56 11.3 11.4 2.89 2.91 5.79 5.81 8.69 8.7 1.39 1.39 2.78 2.79 4.17 4.19 1.93 1.95 3.88 3.89 5.84 5.82 0.573 0.585 1.15 1.17 1.74 1.77 1.76 1.77 1.76 1.77 4.48 3.82 4.65-0.467 7.21-3.82 10.3-6.99 0.625-0.624 1.25-1.25 1.89-1.89 2.06-2.07 4.12-4.14 6.17-6.22 1.43-1.43 2.86-2.87 4.29-4.3 3.76-3.77 7.51-7.55 11.3-11.3 3.83-3.86 7.67-7.71 11.5-11.6 7.53-7.56 15-15.1 22.6-22.7-1.65-4.24-4.8-7.09-7.96-10.2-0.61-0.615-1.22-1.23-1.85-1.86-2.01-2.03-4.04-4.05-6.06-6.07-1.4-1.41-2.81-2.81-4.21-4.22-2.94-2.95-5.88-5.89-8.82-8.83-3.78-3.77-7.55-7.56-11.3-11.3-2.89-2.91-5.79-5.81-8.69-8.7-1.39-1.39-2.78-2.79-4.17-4.19-1.94-1.95-3.88-3.89-5.83-5.83-0.575-0.583-1.15-1.17-1.74-1.77-3.08-3.26-3.08-3.26-7.35-3.95zm-384 52c-0.575 0.588-1.15 1.18-1.74 1.78-0.612 0.613-1.22 1.23-1.85 1.86-2.03 2.03-4.04 4.08-6.06 6.12-1.4 1.41-2.81 2.82-4.21 4.23-3.7 3.72-7.39 7.44-11.1 11.2-5.91 5.97-11.8 11.9-17.7 17.9-2.07 2.09-4.14 4.17-6.21 6.26-1.26 1.27-2.53 2.55-3.79 3.82-0.577 0.586-1.15 1.17-1.75 1.77-3.99 4.01-3.99 4.01-6.21 5.12 0.874 4.66 3.71 7.11 6.99 10.3 0.624 0.625 1.25 1.25 1.89 1.89 2.07 2.06 4.14 4.12 6.22 6.17 1.43 1.43 2.87 2.86 4.3 4.29 3.77 3.76 7.55 7.51 11.3 11.3 3.86 3.83 7.71 7.67 11.6 11.5 7.56 7.53 15.1 15 22.7 22.6 4.24-1.65 7.1-4.8 10.3-7.95 0.617-0.608 1.23-1.22 1.87-1.84 2.03-2.01 4.06-4.03 6.09-6.05 1.41-1.4 2.82-2.8 4.23-4.2 2.95-2.93 5.9-5.87 8.84-8.81 3.78-3.77 7.57-7.53 11.4-11.3 2.91-2.88 5.82-5.78 8.72-8.68 1.4-1.39 2.79-2.78 4.2-4.16 1.96-1.93 3.9-3.87 5.83-5.82 0.586-0.572 1.17-1.14 1.78-1.73 1.78-1.75 1.78-1.75 3.83-4.47-0.0577-2.13-0.0577-2.13-1-4-0.99-0.33-1.98-0.66-3-1-0.278-0.561-0.557-1.12-0.844-1.7-1.63-3.24-4.11-5.54-6.66-8.08-0.842-0.849-0.842-0.849-1.7-1.72-1.85-1.87-3.71-3.73-5.57-5.58-1.29-1.29-2.58-2.59-3.87-3.88-2.7-2.71-5.41-5.42-8.12-8.12-3.48-3.47-6.94-6.95-10.4-10.4-2.66-2.67-5.33-5.34-8-8.01-1.28-1.28-2.56-2.57-3.84-3.85-1.78-1.79-3.57-3.58-5.36-5.36-0.528-0.536-1.06-1.07-1.6-1.62-4.82-4.75-6.66-4.34-11.4 0.351zm239 92.9c-3.27 3.47-6.43 7.06-9.59 10.6-2.36 2.58-4.8 5.04-7.28 7.5-1.2 1.2-1.2 1.2-2.42 2.42-14.5 14.5-29.1 29.1-43.6 43.6 21.8 21.8 43.6 43.6 66 66 4.23-2.11 6.97-4.7 10.2-8.01 0.615-0.615 1.23-1.23 1.86-1.86 2.03-2.03 4.05-4.07 6.07-6.1 1.41-1.41 2.81-2.82 4.22-4.23 3.7-3.71 7.39-7.42 11.1-11.1 3.77-3.79 7.55-7.58 11.3-11.4 7.41-7.43 14.8-14.9 22.2-22.3-1.65-4.24-4.8-7.09-7.96-10.2-0.61-0.615-1.22-1.23-1.85-1.86-2.01-2.03-4.04-4.05-6.06-6.07-1.4-1.41-2.81-2.81-4.21-4.22-2.94-2.95-5.88-5.89-8.82-8.83-3.78-3.77-7.55-7.56-11.3-11.3-2.89-2.91-5.79-5.81-8.69-8.7-1.39-1.39-2.78-2.79-4.17-4.19-1.94-1.95-3.88-3.89-5.83-5.83-0.575-0.583-1.15-1.17-1.74-1.77-4.37-4.53-4.37-4.53-9.47-2.08zm-379 47.3c-0.935 0.954-1.87 1.91-2.8 2.87-0.918 0.921-1.84 1.84-2.78 2.79-1.02 1.02-2.04 2.05-3.06 3.07-5.7 5.71-11.4 11.4-17.1 17.1-3.44 3.45-6.89 6.9-10.3 10.3-3.34 3.35-6.68 6.69-10 10-1.27 1.27-2.54 2.55-3.81 3.82-1.77 1.78-3.55 3.55-5.32 5.33-0.524 0.527-1.05 1.05-1.59 1.6-2.25 2.24-4.35 4.11-7 5.87 1.66 4.3 4.9 7.16 8.1 10.3 0.625 0.625 1.25 1.25 1.89 1.89 2.06 2.06 4.13 4.11 6.2 6.17 1.43 1.43 2.86 2.86 4.3 4.29 3.77 3.76 7.54 7.51 11.3 11.3 3.85 3.83 7.7 7.67 11.5 11.5 7.55 7.52 15.1 15 22.7 22.6 4.59-3.85 8.98-7.82 13.2-12 0.578-0.57 1.16-1.14 1.75-1.73 1.89-1.86 3.77-3.73 5.65-5.59 0.969-0.961 0.969-0.961 1.96-1.94 3.41-3.38 6.81-6.76 10.2-10.1 2.81-2.8 5.63-5.59 8.46-8.38 3.42-3.37 6.83-6.76 10.2-10.2 1.3-1.29 2.6-2.58 3.9-3.86 1.82-1.79 3.62-3.59 5.42-5.39 0.544-0.528 1.09-1.06 1.65-1.6 1.65-1.62 1.65-1.62 3.54-4.18-0.495-4.65-3.8-7.21-6.97-10.3-0.934-0.937-0.934-0.937-1.89-1.89-2.06-2.06-4.13-4.12-6.2-6.17-1.43-1.43-2.86-2.86-4.29-4.29-3-2.99-6-5.98-9.01-8.97-3.86-3.84-7.72-7.68-11.6-11.5-2.95-2.95-5.91-5.9-8.87-8.84-1.42-1.42-2.85-2.84-4.27-4.25-1.98-1.98-3.97-3.95-5.96-5.92-0.89-0.888-0.89-0.888-1.8-1.79-3.49-4.36-3.49-4.36-7.37-1.88zm617 47.6c-0.682 0.809-1.36 1.62-2.07 2.45-3.64 4.18-7.38 8.18-11.3 12.1-0.552 0.553-1.1 1.11-1.67 1.68-1.76 1.76-3.53 3.52-5.29 5.27-1.24 1.24-2.49 2.48-3.73 3.72-3.24 3.23-6.48 6.47-9.72 9.7-3.32 3.31-6.64 6.62-9.96 9.94-6.49 6.48-13 12.9-19.5 19.4 0.33 0.66 0.66 1.32 1 2h2v2c1.36 1.37 1.36 1.37 3.2 2.83 6.21 5.28 11.9 11.1 17.6 16.9 1.22 1.22 2.44 2.45 3.67 3.67 3.19 3.2 6.38 6.39 9.57 9.59 3.26 3.27 6.53 6.54 9.79 9.81 6.39 6.4 12.8 12.8 19.2 19.2 4.26-1.65 7.1-4.83 10.2-8.01 0.615-0.615 1.23-1.23 1.86-1.86 2.03-2.03 4.05-4.07 6.07-6.1 1.41-1.41 2.81-2.82 4.22-4.23 3.7-3.71 7.39-7.42 11.1-11.1 3.77-3.79 7.55-7.58 11.3-11.4 7.41-7.43 14.8-14.9 22.2-22.3-1.65-4.24-4.8-7.09-7.96-10.2-0.61-0.615-1.22-1.23-1.85-1.86-2.01-2.03-4.04-4.05-6.06-6.07-1.4-1.41-2.81-2.81-4.21-4.22-2.94-2.95-5.88-5.89-8.82-8.83-3.78-3.77-7.55-7.56-11.3-11.3-2.89-2.91-5.79-5.81-8.69-8.7-1.39-1.39-2.78-2.79-4.17-4.19-1.94-1.95-3.88-3.89-5.83-5.83-0.575-0.583-1.15-1.17-1.74-1.77-4.22-4.49-4.22-4.49-9.15-2.23zm-380 46.5c-0.563 0.577-1.13 1.15-1.71 1.75-0.55 0.557-1.1 1.11-1.67 1.69-1.18 1.28-2.36 2.56-3.49 3.89-5.35 6.27-11.2 12.1-17 17.9-1.08 1.08-2.17 2.17-3.25 3.25-2.25 2.26-4.51 4.51-6.77 6.76-2.9 2.89-5.79 5.79-8.68 8.68-2.23 2.23-4.46 4.46-6.69 6.69-1.07 1.07-2.14 2.14-3.2 3.2-1.48 1.49-2.97 2.97-4.46 4.45-0.845 0.844-1.69 1.69-2.56 2.56-2.05 1.93-2.05 1.93-4.05 2.93 0.472 4.25 2.89 6.27 6 9h2c0.239 0.564 0.478 1.13 0.724 1.71 1.55 2.79 3.43 4.71 5.69 6.97 0.914 0.921 1.83 1.84 2.77 2.79 0.999 0.996 2 1.99 3 2.99 1.02 1.03 2.05 2.05 3.07 3.08 2.14 2.14 4.29 4.29 6.44 6.43 2.76 2.75 5.51 5.5 8.25 8.26 2.11 2.12 4.23 4.23 6.34 6.34 1.02 1.01 2.03 2.03 3.04 3.05 1.41 1.42 2.83 2.83 4.25 4.24 0.807 0.805 1.61 1.61 2.44 2.44 1.79 1.94 1.79 1.94 3.97 1.72 0.227 0.557 0.454 1.11 0.688 1.69 1.67 2.94 3.87 4.99 6.31 7.31 4.3-1.66 7.16-4.9 10.3-8.1 0.625-0.625 1.25-1.25 1.89-1.89 2.06-2.06 4.11-4.13 6.17-6.2 1.43-1.43 2.86-2.86 4.29-4.3 3.76-3.77 7.51-7.54 11.3-11.3 3.83-3.85 7.67-7.7 11.5-11.5 7.52-7.55 15-15.1 22.6-22.7-3.87-4.63-7.89-9.04-12.2-13.3-0.583-0.586-1.17-1.17-1.77-1.78-1.9-1.91-3.81-3.82-5.72-5.73-1.33-1.34-2.66-2.67-4-4.01-2.78-2.78-5.56-5.57-8.34-8.35-3.57-3.57-7.14-7.15-10.7-10.7-2.74-2.75-5.49-5.5-8.24-8.25-1.32-1.32-2.63-2.64-3.95-3.96-1.83-1.84-3.66-3.67-5.5-5.5-0.544-0.55-1.09-1.1-1.65-1.67-3.36-3.9-3.36-3.9-7.47-2.48zm233 99.8c-1.01 1.15-2.01 2.3-3 3.47-4.84 5.57-10.1 10.7-15.3 16-1.08 1.08-2.16 2.16-3.24 3.25-2.25 2.25-4.5 4.5-6.76 6.75-2.89 2.88-5.77 5.77-8.65 8.66-2.23 2.23-4.45 4.46-6.68 6.68-1.06 1.06-2.13 2.13-3.19 3.19-1.48 1.48-2.97 2.96-4.45 4.44-0.843 0.842-1.69 1.68-2.55 2.55-2.17 2.05-2.17 2.05-5.17 4.05 0.874 4.66 3.71 7.11 6.99 10.3 0.624 0.625 1.25 1.25 1.89 1.89 2.07 2.06 4.14 4.12 6.22 6.17 1.43 1.43 2.87 2.86 4.3 4.29 3.77 3.76 7.55 7.51 11.3 11.3 3.86 3.83 7.71 7.67 11.6 11.5 7.56 7.53 15.1 15 22.7 22.6 4.3-1.66 7.16-4.9 10.3-8.1 0.625-0.625 1.25-1.25 1.89-1.89 2.06-2.06 4.11-4.13 6.17-6.2 1.43-1.43 2.86-2.86 4.29-4.3 3.76-3.77 7.51-7.54 11.3-11.3 3.83-3.85 7.67-7.7 11.5-11.5 7.52-7.55 15-15.1 22.6-22.7-3.74-4.46-7.58-8.73-11.7-12.8-0.534-0.537-1.07-1.07-1.62-1.63-1.74-1.75-3.49-3.5-5.23-5.24-1.22-1.22-2.44-2.45-3.66-3.67-2.54-2.55-5.09-5.1-7.64-7.64-3.27-3.27-6.53-6.55-9.79-9.82-2.51-2.52-5.02-5.04-7.54-7.55-1.21-1.21-2.41-2.42-3.61-3.63-1.67-1.68-3.35-3.36-5.03-5.03-0.747-0.755-0.747-0.755-1.51-1.53-2.39-2.66-2.39-2.66-5.67-3.41-0.99-1.98-0.99-1.98-2-4-4.2 0-6.12 2.21-9 5zm-382 49c-1.75 1.94-3.36 3.96-5 6-1.65 1.68-3.32 3.34-5 5-0.767 0.767-1.53 1.53-2.32 2.32-17.7 17.7-17.7 17.7-20.3 20.3-1.85 1.85-3.69 3.7-5.52 5.56-1.11 1.11-2.21 2.23-3.32 3.34-0.821 0.833-0.821 0.833-1.66 1.68-2.63 2.65-5.28 5.18-8.17 7.55-2.67 2.22-4.67 4.49-6.74 7.27 3.85 4.59 7.82 8.98 12 13.2 0.57 0.578 1.14 1.16 1.73 1.75 1.86 1.89 3.73 3.77 5.59 5.65 0.64 0.646 1.28 1.29 1.94 1.96 3.38 3.41 6.76 6.81 10.1 10.2 2.8 2.81 5.59 5.63 8.38 8.46 3.37 3.42 6.76 6.83 10.2 10.2 1.29 1.3 2.58 2.6 3.86 3.9 1.79 1.82 3.59 3.62 5.39 5.42 0.528 0.544 1.06 1.09 1.6 1.65 1.62 1.65 1.62 1.65 4.18 3.54 4.65-0.495 7.21-3.81 10.3-6.99 0.625-0.624 1.25-1.25 1.89-1.89 2.06-2.07 4.12-4.14 6.17-6.22 1.43-1.43 2.86-2.87 4.29-4.3 3.76-3.77 7.51-7.55 11.3-11.3 3.83-3.86 7.67-7.71 11.5-11.6 7.53-7.56 15-15.1 22.6-22.7-0.33-0.99-0.66-1.98-1-3h-2c-0.99-1.98-0.99-1.98-2-4h-2c-0.33-0.99-0.66-1.98-1-3h-2c-0.245-0.569-0.489-1.14-0.741-1.72-1.48-2.68-3.23-4.51-5.4-6.68-0.854-0.861-1.71-1.72-2.59-2.61-0.924-0.92-1.85-1.84-2.8-2.79-0.957-0.958-1.91-1.92-2.87-2.88-2-2-4.01-4-6.01-6-2.58-2.56-5.14-5.14-7.71-7.71-1.97-1.98-3.95-3.95-5.92-5.92-1.41-1.41-2.82-2.82-4.22-4.23-0.854-0.848-1.71-1.7-2.59-2.57-1.13-1.13-1.13-1.13-2.28-2.28-1.7-1.82-1.7-1.82-3.86-1.61-0.495-1.49-0.495-1.49-1-3h-2c-0.495-1.49-0.495-1.49-1-3-1.88-2.21-1.88-2.21-4-4-4.02 0-7.22 4.34-10 7zm239 94c-1.03 1.15-2.04 2.32-3.04 3.5-4.82 5.57-10.1 10.7-15.3 15.9-1.08 1.08-2.16 2.16-3.24 3.25-2.25 2.25-4.5 4.5-6.76 6.75-2.89 2.88-5.77 5.77-8.65 8.66-2.23 2.23-4.45 4.46-6.68 6.68-1.06 1.06-2.13 2.13-3.19 3.19-1.48 1.48-2.97 2.96-4.45 4.44-0.843 0.842-1.69 1.68-2.55 2.55-2.17 2.05-2.17 2.05-5.17 4.05-0.343 2.95-0.343 2.95 1.28 4.35 0.931 0.741 0.931 0.741 1.88 1.5 3.88 3.26 7.5 6.69 11.1 10.3 0.856 0.856 0.856 0.856 1.73 1.73 1.84 1.84 3.67 3.68 5.51 5.52 1.29 1.29 2.58 2.58 3.87 3.87 3.37 3.37 6.73 6.75 10.1 10.1 3.44 3.45 6.89 6.91 10.3 10.4 6.74 6.76 13.5 13.5 20.2 20.3 4.59-3.85 8.98-7.82 13.2-12 0.578-0.57 1.16-1.14 1.75-1.73 1.89-1.86 3.77-3.73 5.65-5.59 0.969-0.961 0.969-0.961 1.96-1.94 3.41-3.38 6.81-6.76 10.2-10.1 2.81-2.8 5.63-5.59 8.46-8.38 3.42-3.37 6.83-6.76 10.2-10.2 1.3-1.29 2.6-2.58 3.9-3.86 1.82-1.79 3.62-3.59 5.42-5.39 0.544-0.528 1.09-1.06 1.65-1.6 1.65-1.62 1.65-1.62 3.54-4.18-0.495-4.65-3.8-7.21-6.97-10.3-0.934-0.937-0.934-0.937-1.89-1.89-2.06-2.06-4.13-4.12-6.2-6.17-1.43-1.43-2.86-2.86-4.29-4.29-3-2.99-6-5.98-9.01-8.97-3.86-3.84-7.72-7.68-11.6-11.5-2.95-2.95-5.91-5.9-8.87-8.84-1.42-1.42-2.85-2.84-4.27-4.25-1.98-1.98-3.97-3.95-5.96-5.92-0.89-0.888-0.89-0.888-1.8-1.79-5.78-5.71-6.71-3.1-12.2 1.98z" fill="#ffffff"/>
<path transform="translate(388,746)" d="m0 0c2.74 2.74 3.02 5.77 3.88 9.44 10.8 43 29.4 85 50 124 0.498 0.943 0.995 1.89 1.51 2.86 0.977 1.85 1.96 3.69 2.95 5.53 0.673 1.27 0.673 1.27 1.36 2.56 0.399 0.747 0.799 1.49 1.21 2.26 2.61 5.54 3.36 9.12 2.09 15.2-0.134 0.665-0.268 1.33-0.406 2.01-0.452 2.22-0.925 4.44-1.4 6.66-0.33 1.61-0.66 3.21-0.987 4.82-0.712 3.48-1.43 6.95-2.16 10.4-1.17 5.56-2.32 11.1-3.46 16.7-1.43 6.95-2.87 13.9-4.31 20.9-2.87 13.8-5.71 27.7-8.53 41.5-0.218 1.07-0.437 2.15-0.662 3.25-0.878 4.31-1.76 8.62-2.63 12.9-2.06 10.1-4.12 20.2-6.19 30.3-0.583 2.86-1.17 5.71-1.75 8.57-1.8 8.82-3.6 17.6-5.44 26.4-0.85 4.08-1.7 8.17-2.54 12.3-0.403 1.94-0.807 3.88-1.21 5.81-0.561 2.67-1.11 5.34-1.67 8.02-0.167 0.784-0.333 1.57-0.505 2.37-0.841 4.11-1.55 7.99-1.13 12.2 2.42 2.27 2.42 2.27 5 4v2c1.32 0.66 2.64 1.32 4 2v2c0.99 0.33 1.98 0.66 3 1v2c1.32 0.66 2.64 1.32 4 2v2c0.99 0.33 1.98 0.66 3 1v2c0.99 0.33 1.98 0.66 3 1 2.19 1.94 2.19 1.94 4 4v2c1.32 0.66 2.64 1.32 4 2v2c1.32 0.66 2.64 1.32 4 2v2c0.99 0.33 1.98 0.66 3 1v2c1.32 0.66 2.64 1.32 4 2v2c0.99 0.33 1.98 0.66 3 1v2c0.99 0.33 1.98 0.66 3 1 1.69 1.98 3.35 3.98 5 6 0.99 0.66 1.98 1.32 3 2v2c1.32 0.66 2.64 1.32 4 2v2c5.37 1.31 9.54 0.59 14.8-0.525 0.878-0.176 1.76-0.353 2.66-0.534 2.94-0.594 5.88-1.2 8.82-1.81 2.12-0.43 4.23-0.86 6.35-1.29 4.57-0.927 9.13-1.86 13.7-2.8 7.24-1.49 14.5-2.96 21.7-4.43 24.6-5 49.2-10.1 73.8-15.2 4.76-0.988 9.52-1.97 14.3-2.96 0.665-0.138 1.33-0.275 2.01-0.417 2.66-0.551 5.33-1.1 7.99-1.65 8.46-1.75 16.9-3.51 25.4-5.28 4.86-1.02 9.73-2.03 14.6-3.03 2.26-0.47 4.53-0.944 6.79-1.42 3.09-0.654 6.19-1.29 9.28-1.93 0.898-0.193 1.8-0.387 2.72-0.586 7.23-1.46 12.9-1.2 19.4 2.51 1 0.556 2 1.11 3.03 1.69 1.07 0.605 2.14 1.21 3.24 1.83 2.33 1.29 4.67 2.57 7.01 3.84 0.603 0.329 1.21 0.658 1.83 0.997 19.9 10.8 40.5 19.8 61.5 28 0.976 0.385 1.95 0.769 2.96 1.17 16.3 6.4 32.9 11.8 49.6 17.1 4.84 1.54 9.66 3.12 14.5 4.75-3.26 2.17-5.39 2.65-9.21 3.4-0.631 0.126-1.26 0.252-1.91 0.382-2.11 0.42-4.22 0.83-6.33 1.24-1.5 0.297-3 0.594-4.5 0.892-3.22 0.639-6.44 1.27-9.66 1.9-5.13 1.01-10.3 2.02-15.4 3.04-1.74 0.345-3.48 0.691-5.22 1.04-0.865 0.172-1.73 0.343-2.62 0.52-2.64 0.524-5.29 1.05-7.93 1.57-15.6 3.08-31.2 6.22-46.7 9.39-1.9 0.387-1.9 0.387-3.84 0.781-24.1 4.9-48.1 9.83-72.2 14.8-24.8 5.09-49.6 10.2-74.4 15.2-2.25 0.457-4.51 0.914-6.76 1.37-15.1 3.06-30.3 6.12-45.4 9.17-7.16 1.44-14.3 2.89-21.5 4.33-4.27 0.863-8.55 1.73-12.8 2.59-1.62 0.326-3.24 0.652-4.86 0.978-0.788 0.159-1.58 0.317-2.39 0.481-6.02 1.21-12 2.45-18.1 3.7-4.72 0.973-9.44 1.88-14.2 2.76-2.41 0.475-4.82 0.95-7.24 1.43-1.06 0.183-2.13 0.367-3.22 0.555-10.9 2.24-17.6 9.53-24.3 18.1-0.449 0.484-0.897 0.967-1.36 1.47h-2c-0.235 0.559-0.469 1.12-0.711 1.7-1.61 2.87-3.58 4.85-5.91 7.18-0.713 0.718-0.713 0.718-1.44 1.45-1.6 1.61-3.21 3.21-4.81 4.81-1.16 1.16-2.31 2.32-3.47 3.48-3.19 3.2-6.38 6.38-9.57 9.57-3.44 3.44-6.87 6.88-10.3 10.3-6.73 6.74-13.5 13.5-20.2 20.2-5.48 5.47-11 11-16.4 16.4-0.778 0.779-1.56 1.56-2.36 2.36-1.58 1.58-3.16 3.16-4.74 4.75-14.8 14.8-29.7 29.7-44.5 44.5-13.6 13.6-27.2 27.2-40.7 40.8-13.9 13.9-27.9 27.9-41.8 41.8-7.83 7.83-15.7 15.7-23.5 23.5-6.66 6.67-13.3 13.3-20 20-3.4 3.4-6.81 6.8-10.2 10.2-3.11 3.12-6.22 6.23-9.34 9.33-1.13 1.13-2.26 2.26-3.38 3.39-1.52 1.53-3.06 3.06-4.59 4.58-1.28 1.28-1.28 1.28-2.58 2.58-2.42 2.05-4.43 3.07-7.42 4.05-0.354-0.425-0.709-0.851-1.07-1.29-5.94-6.97-12.4-13.4-18.9-19.8-1.31-1.31-2.62-2.62-3.93-3.93-3.54-3.54-7.08-7.08-10.6-10.6-3.71-3.7-7.42-7.41-11.1-11.1-7.01-7.01-14-14-21-21-7.99-7.98-16-16-24-23.9-16.4-16.4-32.9-32.8-49.3-49.2 1.58-3.84 4.01-6.25 6.94-9.15 0.509-0.508 1.02-1.02 1.54-1.54 1.72-1.71 3.44-3.41 5.16-5.12 1.24-1.23 2.48-2.47 3.72-3.7 2.7-2.69 5.41-5.37 8.11-8.05 4.4-4.36 8.8-8.74 13.2-13.1 5.56-5.52 11.1-11 16.7-16.6 10.9-10.9 21.8-21.7 32.8-32.6 1.72-1.71 3.44-3.42 5.15-5.13 2.6-2.59 5.21-5.19 7.81-7.78 9.82-9.78 19.6-19.6 29.5-29.3 0.898-0.894 1.8-1.79 2.72-2.71 14.5-14.5 29.1-28.9 43.7-43.4 15-14.8 29.9-29.7 44.8-44.6 9.2-9.18 18.4-18.3 27.7-27.5 6.33-6.27 12.6-12.6 18.9-18.9 3.63-3.64 7.27-7.26 10.9-10.9 3.36-3.3 6.69-6.63 10-9.98 1.2-1.2 2.41-2.4 3.63-3.58 8.47-8.23 12.1-14.7 14.1-26.5 0.383-1.74 0.772-3.49 1.17-5.23 0.324-1.59 0.643-3.19 0.957-4.78 0.18-0.893 0.36-1.79 0.546-2.71 0.587-2.92 1.17-5.84 1.75-8.75 0.421-2.1 0.842-4.19 1.26-6.29 0.894-4.45 1.79-8.9 2.68-13.4 2.12-10.6 4.26-21.2 6.39-31.9 0.719-3.58 1.44-7.16 2.16-10.7 3.88-19.3 7.82-38.6 11.8-57.9 1.45-7.02 2.89-14 4.33-21.1 0.159-0.775 0.319-1.55 0.483-2.35 4.01-19.5 7.96-39 11.9-58.6 0.57-2.82 1.14-5.64 1.71-8.46 3.36-16.6 6.72-33.3 10.1-49.9 2.12-10.5 4.23-21 6.35-31.5 0.167-0.826 0.334-1.65 0.506-2.5 5.13-25.4 10.4-50.8 15.9-76.1z" fill="#ffffff"/>
</svg>
