<svg xmlns="http://www.w3.org/2000/svg" height="45" viewBox="0 -960 960 960" width="45">
    <path d="m127.13-136.782-80.652-79.653 164-165q32-31 43.696-77.348 11.696-46.347 11.696-142.651 0-66.472 27.782-128.323 27.783-61.852 80.112-114.225 99.106-98.366 221.214-110.648 122.108-12.283 200.631 68.152 79 80.304 66.5 201.956-12.5 121.652-108.935 219.783-52.304 52.869-114.721 80.652-62.416 27.783-128.888 27.783-95.913 0-140.956 11.261-45.044 11.261-77.115 43.424L127.13-136.782Zm284.522-368.175q44.609 44.609 122.718 31.826 78.108-12.782 138.84-73.018 61.697-61.192 74.243-138.413 12.546-77.22-31.497-121.264-44.913-44.043-121.47-32.35-76.557 11.693-138.436 72.795-61.006 61.164-74.506 139.183-13.5 78.02 30.108 121.241ZM730.779-9.609q-75.684 0-128.818-53.416-53.134-53.417-53.134-129.101t53.134-128.931q53.134-53.247 128.818-53.247 75.684 0 129.214 53.247 53.529 53.247 53.529 128.931 0 75.684-53.529 129.1-53.53 53.417-129.214 53.417Zm.074-105.434q31.827 0 54.531-22.617 22.703-22.616 22.703-54.375 0-31.992-22.713-54.413-22.713-22.421-54.609-22.421-31.895 0-54.199 22.596t-22.304 54.326q0 31.73 22.498 54.317 22.499 22.587 54.093 22.587Zm-.244-76.913Z" fill="#ffffff"/>
</svg>