<svg xmlns="http://www.w3.org/2000/svg" height="45" viewBox="0 -960 960 960" width="45">
    <path d="m523.782-64.043-75.609-75.609 143.435-142.87-309.086-309.086-142.87 143.435-75.609-75.609 58.305-57.739-62.044-62.609 85.131-85.13-62.609-62.044 85.87-85.87 62.044 62.609 85.13-85.131 62.609 62.044 57.739-58.305 75.609 75.609-143.435 142.87 309.086 309.086 142.87-143.435 75.609 75.609-58.305 57.739 62.044 62.609-85.131 85.13 62.609 62.044-85.87 85.87-62.044-62.609-85.13 85.13-62.609-62.043-57.739 58.305Z" fill="#ffffff"/>
</svg>